<mxfile host="65bd71144e" modified="2020-12-09T15:29:46.761Z" agent="5.0 (X11; Linux x86_64) AppleWebKit/537.36 (KHTML, like Gecko) Code/1.51.1 Chrome/83.0.4103.122 Electron/9.3.3 Safari/537.36" etag="UMkZvxI1fwFZ1sel1ZNB" version="13.10.0" type="embed">
    <diagram id="1XTyoEW7qzfLBBSgb7DO" name="Page-1">
        <mxGraphModel dx="614" dy="243" grid="1" gridSize="10" guides="1" tooltips="1" connect="1" arrows="1" fold="1" page="1" pageScale="1" pageWidth="850" pageHeight="1100" math="0" shadow="0">
            <root>
                <mxCell id="0"/>
                <mxCell id="1" parent="0"/>
                <mxCell id="2" value="" style="rounded=0;whiteSpace=wrap;html=1;" parent="1" vertex="1">
                    <mxGeometry x="170" y="70" width="430" height="10" as="geometry"/>
                </mxCell>
                <mxCell id="3" value="" style="rounded=0;whiteSpace=wrap;html=1;rotation=90;" parent="1" vertex="1">
                    <mxGeometry x="45" y="195" width="260" height="10" as="geometry"/>
                </mxCell>
                <mxCell id="4" value="" style="rounded=0;whiteSpace=wrap;html=1;" parent="1" vertex="1">
                    <mxGeometry x="170" y="320" width="290" height="10" as="geometry"/>
                </mxCell>
                <mxCell id="5" value="Room1" style="rounded=0;whiteSpace=wrap;html=1;fillColor=#0050ef;strokeColor=#001DBC;fontColor=#ffffff;" parent="1" vertex="1">
                    <mxGeometry x="180" y="248" width="120" height="70" as="geometry"/>
                </mxCell>
                <mxCell id="6" value="Room2" style="rounded=0;whiteSpace=wrap;html=1;fillColor=#6a00ff;strokeColor=#3700CC;fontColor=#ffffff;" parent="1" vertex="1">
                    <mxGeometry x="180" y="164" width="120" height="80" as="geometry"/>
                </mxCell>
                <mxCell id="7" value="Room3" style="rounded=0;whiteSpace=wrap;html=1;fillColor=#1ba1e2;strokeColor=#006EAF;fontColor=#ffffff;" parent="1" vertex="1">
                    <mxGeometry x="180" y="81" width="120" height="80" as="geometry"/>
                </mxCell>
                <mxCell id="8" value="" style="rounded=0;whiteSpace=wrap;html=1;rotation=90;" parent="1" vertex="1">
                    <mxGeometry x="435" y="235" width="320" height="10" as="geometry"/>
                </mxCell>
                <mxCell id="9" value="" style="rounded=0;whiteSpace=wrap;html=1;rotation=90;" parent="1" vertex="1">
                    <mxGeometry x="415" y="355" width="80" height="10" as="geometry"/>
                </mxCell>
                <mxCell id="10" value="" style="rounded=0;whiteSpace=wrap;html=1;rotation=0;" parent="1" vertex="1">
                    <mxGeometry x="450" y="390" width="140" height="10" as="geometry"/>
                </mxCell>
                <object label="" type="map-path" key="fromInitialPositionToRoom3" origin="12" id="13">
                    <mxCell style="edgeStyle=orthogonalEdgeStyle;rounded=0;orthogonalLoop=1;jettySize=auto;html=1;" edge="1" parent="1" source="12" target="7">
                        <mxGeometry relative="1" as="geometry">
                            <mxPoint x="570" y="230" as="targetPoint"/>
                            <Array as="points">
                                <mxPoint x="572" y="121"/>
                            </Array>
                        </mxGeometry>
                    </mxCell>
                </object>
                <object label="Robot" type="robot" component_Script="[[&quot;Map fromInitialPositionToRoom3&quot;], 0]" collision_tag="stopEvent" component_Claw="[80,1]" id="12">
                    <mxCell style="ellipse;whiteSpace=wrap;html=1;aspect=fixed;fillColor=#e3c800;strokeColor=#B09500;fontColor=#ffffff;" parent="1" vertex="1">
                        <mxGeometry x="557" y="357" width="30" height="30" as="geometry"/>
                    </mxCell>
                </object>
            </root>
        </mxGraphModel>
    </diagram>
</mxfile>